<svg xmlns="http://www.w3.org/2000/svg" width="2400" height="3200"><path d="M1187,1524L822,1559L1083,1705Z" fill="#6e99d5" stroke="#6e99d5" stroke-width="1.51"/><path d="M822,1559L849,1645L1083,1705Z" fill="#6c97d3" stroke="#6c97d3" stroke-width="1.51"/><path d="M1187,1524L900,1336L822,1559Z" fill="#6b97d2" stroke="#6b97d2" stroke-width="1.51"/><path d="M822,1559L736,1555L849,1645Z" fill="#6893ce" stroke="#6893ce" stroke-width="1.51"/><path d="M900,1336L736,1555L822,1559Z" fill="#6793cd" stroke="#6793cd" stroke-width="1.51"/><path d="M849,1645L700,1920L1083,1705Z" fill="#6c97d3" stroke="#6c97d3" stroke-width="1.51"/><path d="M736,1555L728,1728L849,1645Z" fill="#6893ce" stroke="#6893ce" stroke-width="1.51"/><path d="M900,1336L751,1199L736,1555Z" fill="#6491cb" stroke="#6491cb" stroke-width="1.51"/><path d="M494,1765L700,1920L728,1728Z" fill="#6791cb" stroke="#6791cb" stroke-width="1.51"/><path d="M918,927L751,1199L900,1336Z" fill="#638fc9" stroke="#638fc9" stroke-width="1.51"/><path d="M728,1728L700,1920L849,1645Z" fill="#6a94cf" stroke="#6a94cf" stroke-width="1.51"/><path d="M494,1765L728,1728L736,1555Z" fill="#6590ca" stroke="#6590ca" stroke-width="1.51"/><path d="M1187,1524L1296,1094L900,1336Z" fill="#6c97d3" stroke="#6c97d3" stroke-width="1.51"/><path d="M751,1199L534,1277L736,1555Z" fill="#618dc7" stroke="#618dc7" stroke-width="1.51"/><path d="M1187,1524L1543,1224L1296,1094Z" fill="#6f9ad6" stroke="#6f9ad6" stroke-width="1.51"/><path d="M1530,1759L1552,1446L1187,1524Z" fill="#759edb" stroke="#759edb" stroke-width="1.51"/><path d="M1530,1759L1187,1524L1083,1705Z" fill="#749cda" stroke="#749cda" stroke-width="1.51"/><path d="M433,1558L494,1765L736,1555Z" fill="#628dc6" stroke="#628dc6" stroke-width="1.51"/><path d="M700,1920L1008,2109L1083,1705Z" fill="#709ad7" stroke="#709ad7" stroke-width="1.51"/><path d="M1198,2078L1530,1759L1083,1705Z" fill="#769edc" stroke="#769edc" stroke-width="1.51"/><path d="M534,1277L433,1558L736,1555Z" fill="#608cc5" stroke="#608cc5" stroke-width="1.51"/><path d="M1008,2109L1198,2078L1083,1705Z" fill="#759edb" stroke="#759edb" stroke-width="1.51"/><path d="M1296,1094L918,927L900,1336Z" fill="#6692cd" stroke="#6692cd" stroke-width="1.51"/><path d="M751,1199L475,956L534,1277Z" fill="#5b88bf" stroke="#5b88bf" stroke-width="1.51"/><path d="M1552,1446L1543,1224L1187,1524Z" fill="#739cd9" stroke="#739cd9" stroke-width="1.51"/><path d="M1296,1094L1154,873L918,927Z" fill="#6490ca" stroke="#6490ca" stroke-width="1.51"/><path d="M1364,866L1154,873L1296,1094Z" fill="#6792cc" stroke="#6792cc" stroke-width="1.51"/><path d="M1198,2078L1515,2005L1530,1759Z" fill="#7ba1e0" stroke="#7ba1e0" stroke-width="1.51"/><path d="M1814,1658L1787,1436L1552,1446Z" fill="#80a8e1" stroke="#80a8e1" stroke-width="1.51"/><path d="M918,927L772,865L751,1199Z" fill="#5e8bc3" stroke="#5e8bc3" stroke-width="1.51"/><path d="M883,653L772,865L918,927Z" fill="#5b88c0" stroke="#5b88c0" stroke-width="1.51"/><path d="M700,1920L616,2144L1008,2109Z" fill="#719ad4" stroke="#719ad4" stroke-width="1.51"/><path d="M527,2101L616,2144L700,1920Z" fill="#6c95ce" stroke="#6c95ce" stroke-width="1.51"/><path d="M1198,2078L1313,2202L1515,2005Z" fill="#7ea5e1" stroke="#7ea5e1" stroke-width="1.51"/><path d="M972,2356L1313,2202L1198,2078Z" fill="#7ea6e0" stroke="#7ea6e0" stroke-width="1.51"/><path d="M972,2356L1198,2078L1008,2109Z" fill="#7ba3de" stroke="#7ba3de" stroke-width="1.51"/><path d="M228,1962L527,2101L494,1765Z" fill="#628cc6" stroke="#628cc6" stroke-width="1.51"/><path d="M494,1765L527,2101L700,1920Z" fill="#6791ca" stroke="#6791ca" stroke-width="1.51"/><path d="M1543,1224L1364,866L1296,1094Z" fill="#6c96d2" stroke="#6c96d2" stroke-width="1.51"/><path d="M1154,873L883,653L918,927Z" fill="#5f8cc4" stroke="#5f8cc4" stroke-width="1.51"/><path d="M534,1277L248,1254L433,1558Z" fill="#5986bf" stroke="#5986bf" stroke-width="1.51"/><path d="M772,865L475,956L751,1199Z" fill="#5a87bf" stroke="#5a87bf" stroke-width="1.51"/><path d="M1814,1658L1552,1446L1530,1759Z" fill="#7ea5e0" stroke="#7ea5e0" stroke-width="1.51"/><path d="M1552,1446L1787,1436L1543,1224Z" fill="#7aa3dd" stroke="#7aa3dd" stroke-width="1.51"/><path d="M1543,1224L1817,990L1364,866Z" fill="#729bd4" stroke="#729bd4" stroke-width="1.51"/><path d="M475,956L248,1254L534,1277Z" fill="#5783bb" stroke="#5783bb" stroke-width="1.51"/><path d="M70,1744L228,1962L494,1765Z" fill="#5b85c2" stroke="#5b85c2" stroke-width="1.51"/><path d="M1787,1436L1734,1173L1543,1224Z" fill="#7ba4de" stroke="#7ba4de" stroke-width="1.51"/><path d="M963,2430L972,2356L570,2449Z" fill="#7da6dc" stroke="#7da6dc" stroke-width="1.51"/><path d="M616,2144L972,2356L1008,2109Z" fill="#77a1d9" stroke="#77a1d9" stroke-width="1.51"/><path d="M1761,1945L1814,1658L1530,1759Z" fill="#83aae5" stroke="#83aae5" stroke-width="1.51"/><path d="M1515,2005L1761,1945L1530,1759Z" fill="#81a7e4" stroke="#81a7e4" stroke-width="1.51"/><path d="M1668,2240L1761,1945L1515,2005Z" fill="#87ade7" stroke="#87ade7" stroke-width="1.51"/><path d="M1364,866L1291,730L1154,873Z" fill="#648fc9" stroke="#648fc9" stroke-width="1.51"/><path d="M1550,727L1291,730L1364,866Z" fill="#6690ca" stroke="#6690ca" stroke-width="1.51"/><path d="M1313,2202L1396,2324L1515,2005Z" fill="#82a8e4" stroke="#82a8e4" stroke-width="1.51"/><path d="M1088,2489L1396,2324L1313,2202Z" fill="#84abe4" stroke="#84abe4" stroke-width="1.51"/><path d="M248,1254L126,1468L433,1558Z" fill="#5582bd" stroke="#5582bd" stroke-width="1.51"/><path d="M70,1744L494,1765L433,1558Z" fill="#5c86c1" stroke="#5c86c1" stroke-width="1.51"/><path d="M570,2449L972,2356L616,2144Z" fill="#77a0d6" stroke="#77a0d6" stroke-width="1.51"/><path d="M972,2356L1088,2489L1313,2202Z" fill="#81a9e2" stroke="#81a9e2" stroke-width="1.51"/><path d="M478,2291L616,2144L527,2101Z" fill="#6e97ce" stroke="#6e97ce" stroke-width="1.51"/><path d="M1291,730L883,653L1154,873Z" fill="#608cc5" stroke="#608cc5" stroke-width="1.51"/><path d="M772,865L631,646L475,956Z" fill="#5682b8" stroke="#5682b8" stroke-width="1.51"/><path d="M228,1962L478,2291L527,2101Z" fill="#6891c9" stroke="#6891c9" stroke-width="1.51"/><path d="M1144,2781L1088,2489L888,2870Z" fill="#8db3e6" stroke="#8db3e6" stroke-width="1.51"/><path d="M963,2430L1088,2489L972,2356Z" fill="#82aae2" stroke="#82aae2" stroke-width="1.51"/><path d="M126,1468L70,1744L433,1558Z" fill="#5681be" stroke="#5681be" stroke-width="1.51"/><path d="M1469,2395L1668,2240L1396,2324Z" fill="#8ab0e8" stroke="#8ab0e8" stroke-width="1.51"/><path d="M1396,2324L1668,2240L1515,2005Z" fill="#86ace7" stroke="#86ace7" stroke-width="1.51"/><path d="M883,653L631,646L772,865Z" fill="#5784ba" stroke="#5784ba" stroke-width="1.51"/><path d="M475,956L191,955L248,1254Z" fill="#507db6" stroke="#507db6" stroke-width="1.51"/><path d="M1088,2489L1469,2395L1396,2324Z" fill="#87aee6" stroke="#87aee6" stroke-width="1.51"/><path d="M1698,759L1550,727L1364,866Z" fill="#6b95cd" stroke="#6b95cd" stroke-width="1.51"/><path d="M1291,730L926,417L883,653Z" fill="#5b88c0" stroke="#5b88c0" stroke-width="1.51"/><path d="M1939,1229L1734,1173L1787,1436Z" fill="#81aae1" stroke="#81aae1" stroke-width="1.51"/><path d="M1939,1229L1817,990L1734,1173Z" fill="#7ea7dd" stroke="#7ea7dd" stroke-width="1.51"/><path d="M1734,1173L1817,990L1543,1224Z" fill="#79a2da" stroke="#79a2da" stroke-width="1.51"/><path d="M1998,1577L1939,1229L1787,1436Z" fill="#86afe4" stroke="#86afe4" stroke-width="1.51"/><path d="M1998,1577L1787,1436L1814,1658Z" fill="#87aee5" stroke="#87aee5" stroke-width="1.51"/><path d="M2082,1724L1998,1577L1814,1658Z" fill="#8db3e8" stroke="#8db3e8" stroke-width="1.51"/><path d="M1941,1917L1814,1658L1761,1945Z" fill="#8aafe8" stroke="#8aafe8" stroke-width="1.51"/><path d="M70,1744L39,1790L228,1962Z" fill="#557fbf" stroke="#557fbf" stroke-width="1.51"/><path d="M222,2360L551,2522L478,2291Z" fill="#7099cf" stroke="#7099cf" stroke-width="1.51"/><path d="M-193,1552L39,1790L70,1744Z" fill="#4f7abb" stroke="#4f7abb" stroke-width="1.51"/><path d="M248,1254L-145,1342L126,1468Z" fill="#4d79b8" stroke="#4d79b8" stroke-width="1.51"/><path d="M126,1468L-193,1552L70,1744Z" fill="#4e79ba" stroke="#4e79ba" stroke-width="1.51"/><path d="M274,729L191,955L475,956Z" fill="#4d7ab1" stroke="#4d7ab1" stroke-width="1.51"/><path d="M478,2291L570,2449L616,2144Z" fill="#729bd0" stroke="#729bd0" stroke-width="1.51"/><path d="M551,2522L570,2449L478,2291Z" fill="#759ed2" stroke="#759ed2" stroke-width="1.51"/><path d="M1668,2240L1941,1917L1761,1945Z" fill="#8cb2ea" stroke="#8cb2ea" stroke-width="1.51"/><path d="M1817,990L1698,759L1364,866Z" fill="#709ad2" stroke="#709ad2" stroke-width="1.51"/><path d="M1817,990L1877,912L1698,759Z" fill="#78a1d6" stroke="#78a1d6" stroke-width="1.51"/><path d="M1939,1229L1877,912L1817,990Z" fill="#7ea7dc" stroke="#7ea7dc" stroke-width="1.51"/><path d="M570,2449L551,2522L963,2430Z" fill="#7ba4d9" stroke="#7ba4d9" stroke-width="1.51"/><path d="M222,2360L478,2291L228,1962Z" fill="#6790c9" stroke="#6790c9" stroke-width="1.51"/><path d="M631,646L472,595L475,956Z" fill="#517eb3" stroke="#517eb3" stroke-width="1.51"/><path d="M560,479L472,595L631,646Z" fill="#4e7bb0" stroke="#4e7bb0" stroke-width="1.51"/><path d="M926,417L631,646L883,653Z" fill="#5582b9" stroke="#5582b9" stroke-width="1.51"/><path d="M472,595L274,729L475,956Z" fill="#4e7bb0" stroke="#4e7bb0" stroke-width="1.51"/><path d="M1941,1917L2082,1724L1814,1658Z" fill="#8db3e9" stroke="#8db3e9" stroke-width="1.51"/><path d="M1998,1577L2235,1386L1939,1229Z" fill="#8fb4e6" stroke="#8fb4e6" stroke-width="1.51"/><path d="M1939,1229L2269,1047L1877,912Z" fill="#87addf" stroke="#87addf" stroke-width="1.51"/><path d="M1150,320L926,417L1291,730Z" fill="#5a86c0" stroke="#5a86c0" stroke-width="1.51"/><path d="M1150,320L1291,730L1568,324Z" fill="#5d87c3" stroke="#5d87c3" stroke-width="1.51"/><path d="M-17,2177L222,2360L228,1962Z" fill="#6088c5" stroke="#6088c5" stroke-width="1.51"/><path d="M472,595L367,448L274,729Z" fill="#4975ac" stroke="#4975ac" stroke-width="1.51"/><path d="M926,417L560,479L631,646Z" fill="#517db4" stroke="#517db4" stroke-width="1.51"/><path d="M-51,932L248,1254L191,955Z" fill="#4976b2" stroke="#4976b2" stroke-width="1.51"/><path d="M-51,932L-145,1342L248,1254Z" fill="#4875b4" stroke="#4875b4" stroke-width="1.51"/><path d="M39,1790L-17,2177L228,1962Z" fill="#5881c0" stroke="#5881c0" stroke-width="1.51"/><path d="M-145,1342L-193,1552L126,1468Z" fill="#4c78b8" stroke="#4c78b8" stroke-width="1.51"/><path d="M-201,2092L-17,2177L39,1790Z" fill="#567fbf" stroke="#567fbf" stroke-width="1.51"/><path d="M-59,719L-51,932L191,955Z" fill="#416fac" stroke="#416fac" stroke-width="1.51"/><path d="M-59,719L191,955L274,729Z" fill="#4571ac" stroke="#4571ac" stroke-width="1.51"/><path d="M1568,324L1291,730L1550,727Z" fill="#648dc7" stroke="#648dc7" stroke-width="1.51"/><path d="M500,302L367,448L560,479Z" fill="#4875ab" stroke="#4875ab" stroke-width="1.51"/><path d="M1668,2240L2074,2339L1941,1917Z" fill="#94baef" stroke="#94baef" stroke-width="1.51"/><path d="M1941,1917L2236,1777L2082,1724Z" fill="#96b9eb" stroke="#96b9eb" stroke-width="1.51"/><path d="M1469,2395L1635,2606L1668,2240Z" fill="#8fb5ec" stroke="#8fb5ec" stroke-width="1.51"/><path d="M1144,2781L1635,2606L1469,2395Z" fill="#8fb4eb" stroke="#8fb4eb" stroke-width="1.51"/><path d="M1144,2781L1469,2395L1088,2489Z" fill="#8ab1e8" stroke="#8ab1e8" stroke-width="1.51"/><path d="M2082,1724L2235,1386L1998,1577Z" fill="#94b7e8" stroke="#94b7e8" stroke-width="1.51"/><path d="M888,2870L1088,2489L963,2430Z" fill="#87afe4" stroke="#87afe4" stroke-width="1.51"/><path d="M2082,1724L2394,1649L2235,1386Z" fill="#9cbcea" stroke="#9cbcea" stroke-width="1.51"/><path d="M2306,1999L2236,1777L1941,1917Z" fill="#9cbced" stroke="#9cbced" stroke-width="1.51"/><path d="M560,479L367,448L472,595Z" fill="#4a77ad" stroke="#4a77ad" stroke-width="1.51"/><path d="M781,288L560,479L926,417Z" fill="#4f7cb5" stroke="#4f7cb5" stroke-width="1.51"/><path d="M835,100L781,288L926,417Z" fill="#4e7bb6" stroke="#4e7bb6" stroke-width="1.51"/><path d="M551,2522L888,2870L963,2430Z" fill="#82aade" stroke="#82aade" stroke-width="1.51"/><path d="M222,2360L327,2629L551,2522Z" fill="#739acf" stroke="#739acf" stroke-width="1.51"/><path d="M147,2498L327,2629L222,2360Z" fill="#6d95cc" stroke="#6d95cc" stroke-width="1.51"/><path d="M-193,1552L-248,1831L39,1790Z" fill="#507abb" stroke="#507abb" stroke-width="1.51"/><path d="M-17,2177L147,2498L222,2360Z" fill="#658cc7" stroke="#658cc7" stroke-width="1.51"/><path d="M-71,2570L147,2498L-17,2177Z" fill="#638ac7" stroke="#638ac7" stroke-width="1.51"/><path d="M-145,1342L-289,1311L-193,1552Z" fill="#4b77b7" stroke="#4b77b7" stroke-width="1.51"/><path d="M-193,1552L-421,1583L-248,1831Z" fill="#4f7aba" stroke="#4f7aba" stroke-width="1.51"/><path d="M-240,983L-289,1311L-145,1342Z" fill="#4775b4" stroke="#4775b4" stroke-width="1.51"/><path d="M-248,1831L-201,2092L39,1790Z" fill="#527cbe" stroke="#527cbe" stroke-width="1.51"/><path d="M1902,2602L2074,2339L1668,2240Z" fill="#9bc0f3" stroke="#9bc0f3" stroke-width="1.51"/><path d="M722,2894L888,2870L551,2522Z" fill="#88acdc" stroke="#88acdc" stroke-width="1.51"/><path d="M781,288L500,302L560,479Z" fill="#4a77af" stroke="#4a77af" stroke-width="1.51"/><path d="M1150,320L835,100L926,417Z" fill="#517eba" stroke="#517eba" stroke-width="1.51"/><path d="M1833,417L1568,324L1550,727Z" fill="#6991ca" stroke="#6991ca" stroke-width="1.51"/><path d="M1833,417L1550,727L1698,759Z" fill="#6f97cd" stroke="#6f97cd" stroke-width="1.51"/><path d="M1924,522L1698,759L2021,584Z" fill="#769ed1" stroke="#769ed1" stroke-width="1.51"/><path d="M-51,932L-240,983L-145,1342Z" fill="#4572b1" stroke="#4572b1" stroke-width="1.51"/><path d="M94,351L-59,719L274,729Z" fill="#3f6ca7" stroke="#3f6ca7" stroke-width="1.51"/><path d="M94,351L274,729L367,448Z" fill="#426fa9" stroke="#426fa9" stroke-width="1.51"/><path d="M2235,1386L2269,1047L1939,1229Z" fill="#91b4e4" stroke="#91b4e4" stroke-width="1.51"/><path d="M2351,1254L2269,1047L2235,1386Z" fill="#9ab9e5" stroke="#9ab9e5" stroke-width="1.51"/><path d="M-340,818L-240,983L-51,932Z" fill="#416fac" stroke="#416fac" stroke-width="1.51"/><path d="M2074,2339L2194,2212L1941,1917Z" fill="#9ec0f1" stroke="#9ec0f1" stroke-width="1.51"/><path d="M2021,584L1698,759L1877,912Z" fill="#78a0d4" stroke="#78a0d4" stroke-width="1.51"/><path d="M2394,1649L2082,1724L2236,1777Z" fill="#9ebdec" stroke="#9ebdec" stroke-width="1.51"/><path d="M2419,1356L2351,1254L2235,1386Z" fill="#9ebde7" stroke="#9ebde7" stroke-width="1.51"/><path d="M2194,2212L2306,1999L1941,1917Z" fill="#9fbff0" stroke="#9fbff0" stroke-width="1.51"/><path d="M575,2860L722,2894L551,2522Z" fill="#84a9d9" stroke="#84a9d9" stroke-width="1.51"/><path d="M1144,2781L1519,2871L1635,2606Z" fill="#97b9ed" stroke="#97b9ed" stroke-width="1.51"/><path d="M1635,2606L1902,2602L1668,2240Z" fill="#97bdf1" stroke="#97bdf1" stroke-width="1.51"/><path d="M1069,3030L1278,2900L1144,2781Z" fill="#99b9e9" stroke="#99b9e9" stroke-width="1.51"/><path d="M1069,3030L1144,2781L888,2870Z" fill="#96b7e6" stroke="#96b7e6" stroke-width="1.51"/><path d="M327,2629L575,2860L551,2522Z" fill="#7da3d3" stroke="#7da3d3" stroke-width="1.51"/><path d="M157,2834L575,2860L327,2629Z" fill="#7ea1d1" stroke="#7ea1d1" stroke-width="1.51"/><path d="M2074,2339L2349,2392L2194,2212Z" fill="#aacaf5" stroke="#aacaf5" stroke-width="1.51"/><path d="M1772,2743L1902,2602L1635,2606Z" fill="#9fc3f4" stroke="#9fc3f4" stroke-width="1.51"/><path d="M2306,1999L2394,1649L2236,1777Z" fill="#a3c0ee" stroke="#a3c0ee" stroke-width="1.51"/><path d="M2165,635L2021,584L1877,912Z" fill="#80a5d6" stroke="#80a5d6" stroke-width="1.51"/><path d="M2035,317L1833,417L1924,522Z" fill="#729acf" stroke="#729acf" stroke-width="1.51"/><path d="M1924,522L1833,417L1698,759Z" fill="#729acf" stroke="#729acf" stroke-width="1.51"/><path d="M1568,324L1485,205L1150,320Z" fill="#5a83c1" stroke="#5a83c1" stroke-width="1.51"/><path d="M781,288L731,31L500,302Z" fill="#4774af" stroke="#4774af" stroke-width="1.51"/><path d="M1707,105L1485,205L1568,324Z" fill="#5f87c4" stroke="#5f87c4" stroke-width="1.51"/><path d="M-248,1831L-408,2070L-201,2092Z" fill="#557ebf" stroke="#557ebf" stroke-width="1.51"/><path d="M-289,1311L-421,1583L-193,1552Z" fill="#4c78b8" stroke="#4c78b8" stroke-width="1.51"/><path d="M-340,818L-421,1583L-289,1311Z" fill="#4875b5" stroke="#4875b5" stroke-width="1.51"/><path d="M2394,1649L2419,1356L2235,1386Z" fill="#a1beea" stroke="#a1beea" stroke-width="1.51"/><path d="M2351,1254L2496,1131L2269,1047Z" fill="#9dbae4" stroke="#9dbae4" stroke-width="1.51"/><path d="M1519,2871L1772,2743L1635,2606Z" fill="#9ec1f2" stroke="#9ec1f2" stroke-width="1.51"/><path d="M1278,2900L1519,2871L1144,2781Z" fill="#98baec" stroke="#98baec" stroke-width="1.51"/><path d="M1278,2900L1379,2919L1519,2871Z" fill="#9cbced" stroke="#9cbced" stroke-width="1.51"/><path d="M1251,3217L1379,2919L1278,2900Z" fill="#a0beec" stroke="#a0beec" stroke-width="1.51"/><path d="M1291,104L835,100L1150,320Z" fill="#517cba" stroke="#517cba" stroke-width="1.51"/><path d="M1485,205L1291,104L1150,320Z" fill="#5680bf" stroke="#5680bf" stroke-width="1.51"/><path d="M2176,535L2165,635L2397,573Z" fill="#8aaad4" stroke="#8aaad4" stroke-width="1.51"/><path d="M2269,1047L2165,635L1877,912Z" fill="#87abda" stroke="#87abda" stroke-width="1.51"/><path d="M2021,584L2035,317L1924,522Z" fill="#789ed0" stroke="#789ed0" stroke-width="1.51"/><path d="M147,2498L157,2834L327,2629Z" fill="#7398cd" stroke="#7398cd" stroke-width="1.51"/><path d="M-222,2435L-71,2570L-17,2177Z" fill="#6289c6" stroke="#6289c6" stroke-width="1.51"/><path d="M-222,2435L-17,2177L-282,2356Z" fill="#6087c4" stroke="#6087c4" stroke-width="1.51"/><path d="M722,2894L1069,3030L888,2870Z" fill="#94b5e3" stroke="#94b5e3" stroke-width="1.51"/><path d="M1705,3247L1778,3113L1519,2871Z" fill="#aecbf5" stroke="#aecbf5" stroke-width="1.51"/><path d="M1028,3375L1069,3030L704,3369Z" fill="#a1bee6" stroke="#a1bee6" stroke-width="1.51"/><path d="M280,176L94,351L367,448Z" fill="#3c6aa6" stroke="#3c6aa6" stroke-width="1.51"/><path d="M-59,719L-340,818L-51,932Z" fill="#3f6daa" stroke="#3f6daa" stroke-width="1.51"/><path d="M280,176L367,448L500,302Z" fill="#416ea8" stroke="#416ea8" stroke-width="1.51"/><path d="M-421,1583L-408,2070L-248,1831Z" fill="#517bbd" stroke="#517bbd" stroke-width="1.51"/><path d="M1485,205L1291,52L1291,104Z" fill="#547ebe" stroke="#547ebe" stroke-width="1.51"/><path d="M1291,104L1035,-142L835,100Z" fill="#4c78b8" stroke="#4c78b8" stroke-width="1.51"/><path d="M1340,-102L1291,52L1485,205Z" fill="#527dbe" stroke="#527dbe" stroke-width="1.51"/><path d="M1707,105L1568,324L1833,417Z" fill="#668ec8" stroke="#668ec8" stroke-width="1.51"/><path d="M-282,2356L-17,2177L-201,2092Z" fill="#5c84c2" stroke="#5c84c2" stroke-width="1.51"/><path d="M-408,2070L-282,2356L-201,2092Z" fill="#5b83c2" stroke="#5b83c2" stroke-width="1.51"/><path d="M-240,983L-340,818L-289,1311Z" fill="#4471af" stroke="#4471af" stroke-width="1.51"/><path d="M-248,502L-340,818L-59,719Z" fill="#3d6ba6" stroke="#3d6ba6" stroke-width="1.51"/><path d="M1772,2743L2056,2645L1902,2602Z" fill="#a5c9f8" stroke="#a5c9f8" stroke-width="1.51"/><path d="M1902,2602L2056,2645L2074,2339Z" fill="#a6c9f8" stroke="#a6c9f8" stroke-width="1.51"/><path d="M2194,2212L2506,2101L2306,1999Z" fill="#acc8f3" stroke="#acc8f3" stroke-width="1.51"/><path d="M2202,2775L2056,2645L2022,3116Z" fill="#b8d4fb" stroke="#b8d4fb" stroke-width="1.51"/><path d="M835,100L731,31L781,288Z" fill="#4875b2" stroke="#4875b2" stroke-width="1.51"/><path d="M1035,-142L731,31L835,100Z" fill="#4674b3" stroke="#4674b3" stroke-width="1.51"/><path d="M94,351L-138,506L-59,719Z" fill="#3867a4" stroke="#3867a4" stroke-width="1.51"/><path d="M2165,635L2176,535L2021,584Z" fill="#82a5d3" stroke="#82a5d3" stroke-width="1.51"/><path d="M2397,573L2165,635L2559,852Z" fill="#93b1d8" stroke="#93b1d8" stroke-width="1.51"/><path d="M-213,207L-248,502L-138,506Z" fill="#3463a2" stroke="#3463a2" stroke-width="1.51"/><path d="M514,-45L280,176L500,302Z" fill="#3e6ba7" stroke="#3e6ba7" stroke-width="1.51"/><path d="M2419,1356L2496,1131L2351,1254Z" fill="#a1bee6" stroke="#a1bee6" stroke-width="1.51"/><path d="M2736,1294L2496,1131L2419,1356Z" fill="#a1bee7" stroke="#a1bee7" stroke-width="1.51"/><path d="M575,2860L475,3115L722,2894Z" fill="#8daed9" stroke="#8daed9" stroke-width="1.51"/><path d="M-71,2570L157,2834L147,2498Z" fill="#6e92cb" stroke="#6e92cb" stroke-width="1.51"/><path d="M-121,2778L157,2834L-71,2570Z" fill="#6f92ca" stroke="#6f92ca" stroke-width="1.51"/><path d="M2306,1999L2740,1880L2394,1649Z" fill="#a9c4ef" stroke="#a9c4ef" stroke-width="1.51"/><path d="M2394,1649L2710,1453L2419,1356Z" fill="#a4c1ea" stroke="#a4c1ea" stroke-width="1.51"/><path d="M2056,2645L2349,2392L2074,2339Z" fill="#acccf7" stroke="#acccf7" stroke-width="1.51"/><path d="M2035,317L1707,105L1833,417Z" fill="#6c94cb" stroke="#6c94cb" stroke-width="1.51"/><path d="M2176,535L2035,317L2021,584Z" fill="#7da1d1" stroke="#7da1d1" stroke-width="1.51"/><path d="M2349,2392L2506,2101L2194,2212Z" fill="#b0cdf5" stroke="#b0cdf5" stroke-width="1.51"/><path d="M-138,506L-248,502L-59,719Z" fill="#3968a5" stroke="#3968a5" stroke-width="1.51"/><path d="M-213,207L-138,506L94,351Z" fill="#3262a2" stroke="#3262a2" stroke-width="1.51"/><path d="M1707,105L1712,58L1485,205Z" fill="#5e86c4" stroke="#5e86c4" stroke-width="1.51"/><path d="M715,-200L514,-45L731,31Z" fill="#406eab" stroke="#406eab" stroke-width="1.51"/><path d="M1939,1L1712,58L1707,105Z" fill="#638ac7" stroke="#638ac7" stroke-width="1.51"/><path d="M-108,97L-213,207L94,351Z" fill="#2d5e9f" stroke="#2d5e9f" stroke-width="1.51"/><path d="M731,31L514,-45L500,302Z" fill="#416faa" stroke="#416faa" stroke-width="1.51"/><path d="M1035,-142L1291,104L1291,52Z" fill="#4e79ba" stroke="#4e79ba" stroke-width="1.51"/><path d="M157,2834L475,3115L575,2860Z" fill="#86a6d3" stroke="#86a6d3" stroke-width="1.51"/><path d="M-222,2435L-121,2778L-71,2570Z" fill="#698fc9" stroke="#698fc9" stroke-width="1.51"/><path d="M157,2834L261,3178L475,3115Z" fill="#87a5d2" stroke="#87a5d2" stroke-width="1.51"/><path d="M-255,2874L-121,2778L-222,2435Z" fill="#6e91ca" stroke="#6e91ca" stroke-width="1.51"/><path d="M-255,2874L-222,2435L-391,2902Z" fill="#7093ca" stroke="#7093ca" stroke-width="1.51"/><path d="M1712,58L1340,-102L1485,205Z" fill="#5780c0" stroke="#5780c0" stroke-width="1.51"/><path d="M1340,-102L1035,-142L1291,52Z" fill="#4e7aba" stroke="#4e7aba" stroke-width="1.51"/><path d="M2035,317L1939,1L1707,105Z" fill="#6a91ca" stroke="#6a91ca" stroke-width="1.51"/><path d="M2176,535L2279,173L2035,317Z" fill="#7fa0d0" stroke="#7fa0d0" stroke-width="1.51"/><path d="M2559,852L2165,635L2269,1047Z" fill="#94b3db" stroke="#94b3db" stroke-width="1.51"/><path d="M2022,3116L2056,2645L1772,2743Z" fill="#afcffa" stroke="#afcffa" stroke-width="1.51"/><path d="M1069,3030L1251,3217L1278,2900Z" fill="#9fbeeb" stroke="#9fbeeb" stroke-width="1.51"/><path d="M1028,3375L1251,3217L1069,3030Z" fill="#a4c1ea" stroke="#a4c1ea" stroke-width="1.51"/><path d="M2496,1131L2559,852L2269,1047Z" fill="#9cb9e0" stroke="#9cb9e0" stroke-width="1.51"/><path d="M2641,1045L2559,852L2496,1131Z" fill="#9cb9e0" stroke="#9cb9e0" stroke-width="1.51"/><path d="M2843,1686L2710,1453L2394,1649Z" fill="#a6c2ec" stroke="#a6c2ec" stroke-width="1.51"/><path d="M2349,2392L2504,2351L2506,2101Z" fill="#b4d0f6" stroke="#b4d0f6" stroke-width="1.51"/><path d="M2397,2597L2504,2351L2349,2392Z" fill="#b9d5f9" stroke="#b9d5f9" stroke-width="1.51"/><path d="M2397,2597L2349,2392L2056,2645Z" fill="#b5d3fa" stroke="#b5d3fa" stroke-width="1.51"/><path d="M2740,1880L2306,1999L2506,2101Z" fill="#acc7f1" stroke="#acc7f1" stroke-width="1.51"/><path d="M2736,1294L2641,1045L2496,1131Z" fill="#9fbce4" stroke="#9fbce4" stroke-width="1.51"/><path d="M1778,3113L1772,2743L1519,2871Z" fill="#a7c7f4" stroke="#a7c7f4" stroke-width="1.51"/><path d="M-121,2778L-42,2911L157,2834Z" fill="#7495cb" stroke="#7495cb" stroke-width="1.51"/><path d="M2356,2696L2397,2597L2056,2645Z" fill="#b9d6fb" stroke="#b9d6fb" stroke-width="1.51"/><path d="M2710,1453L2736,1294L2419,1356Z" fill="#a2c0e9" stroke="#a2c0e9" stroke-width="1.51"/><path d="M1705,3247L1519,2871L1379,2919Z" fill="#a6c4f1" stroke="#a6c4f1" stroke-width="1.51"/><path d="M1035,-142L715,-200L731,31Z" fill="#4573b1" stroke="#4573b1" stroke-width="1.51"/><path d="M-108,97L94,351L280,176Z" fill="#3161a1" stroke="#3161a1" stroke-width="1.51"/><path d="M844,-338L715,-200L1035,-142Z" fill="#4674b2" stroke="#4674b2" stroke-width="1.51"/><path d="M2721,2225L2740,1880L2506,2101Z" fill="#aec9f2" stroke="#aec9f2" stroke-width="1.51"/><path d="M2710,1453L2843,1686L2736,1294Z" fill="#a4c1ea" stroke="#a4c1ea" stroke-width="1.51"/><path d="M2721,2225L2506,2101L2504,2351Z" fill="#b3cef5" stroke="#b3cef5" stroke-width="1.51"/><path d="M-42,2911L107,3065L157,2834Z" fill="#7b9acd" stroke="#7b9acd" stroke-width="1.51"/><path d="M2707,831L2549,663L2559,852Z" fill="#97b4da" stroke="#97b4da" stroke-width="1.51"/><path d="M2559,852L2549,663L2397,573Z" fill="#95b2d8" stroke="#95b2d8" stroke-width="1.51"/><path d="M2182,-29L1939,1L2035,317Z" fill="#7295cb" stroke="#7295cb" stroke-width="1.51"/><path d="M2707,831L2559,852L2641,1045Z" fill="#9ab7de" stroke="#9ab7de" stroke-width="1.51"/><path d="M2797,2571L2721,2225L2504,2351Z" fill="#b7d3f8" stroke="#b7d3f8" stroke-width="1.51"/><path d="M2202,2775L2356,2696L2056,2645Z" fill="#b8d5fb" stroke="#b8d5fb" stroke-width="1.51"/><path d="M2333,2951L2356,2696L2202,2775Z" fill="#c2dbfc" stroke="#c2dbfc" stroke-width="1.51"/><path d="M261,3178L527,3260L475,3115Z" fill="#92aed6" stroke="#92aed6" stroke-width="1.51"/><path d="M475,3115L527,3260L722,2894Z" fill="#92b1d9" stroke="#92b1d9" stroke-width="1.51"/><path d="M107,3065L261,3178L157,2834Z" fill="#83a0cf" stroke="#83a0cf" stroke-width="1.51"/><path d="M2279,173L2176,535L2397,573Z" fill="#88a6d2" stroke="#88a6d2" stroke-width="1.51"/><path d="M1629,-352L1412,-302L1340,-102Z" fill="#537dbe" stroke="#537dbe" stroke-width="1.51"/><path d="M-248,502L-404,-153L-340,818Z" fill="#3463a2" stroke="#3463a2" stroke-width="1.51"/><path d="M-108,97L280,176L91,-134Z" fill="#2c5d9e" stroke="#2c5d9e" stroke-width="1.51"/><path d="M292,-199L280,176L514,-45Z" fill="#3665a3" stroke="#3665a3" stroke-width="1.51"/><path d="M-121,2778L-255,2874L-42,2911Z" fill="#7595cb" stroke="#7595cb" stroke-width="1.51"/><path d="M-42,2911L-18,3192L107,3065Z" fill="#7f9bcc" stroke="#7f9bcc" stroke-width="1.51"/><path d="M107,3065L-18,3192L261,3178Z" fill="#86a1cf" stroke="#86a1cf" stroke-width="1.51"/><path d="M-391,2902L-222,2435L-282,2356Z" fill="#678ec9" stroke="#678ec9" stroke-width="1.51"/><path d="M704,3369L1069,3030L722,2894Z" fill="#9ab8e2" stroke="#9ab8e2" stroke-width="1.51"/><path d="M1251,3217L1443,3329L1379,2919Z" fill="#a6c2ee" stroke="#a6c2ee" stroke-width="1.51"/><path d="M1414,3403L1443,3329L1251,3217Z" fill="#a9c4ef" stroke="#a9c4ef" stroke-width="1.51"/><path d="M2474,98L2279,173L2397,573Z" fill="#8aa6d1" stroke="#8aa6d1" stroke-width="1.51"/><path d="M2736,1294L2707,831L2641,1045Z" fill="#9dbae1" stroke="#9dbae1" stroke-width="1.51"/><path d="M2736,1294L2809,445L2707,831Z" fill="#99b6dc" stroke="#99b6dc" stroke-width="1.51"/><path d="M2740,1880L2843,1686L2394,1649Z" fill="#a8c3ed" stroke="#a8c3ed" stroke-width="1.51"/><path d="M2721,2225L2843,1686L2740,1880Z" fill="#aac5f0" stroke="#aac5f0" stroke-width="1.51"/><path d="M1443,3329L1705,3247L1379,2919Z" fill="#abc6f1" stroke="#abc6f1" stroke-width="1.51"/><path d="M1778,3113L2022,3116L1772,2743Z" fill="#b1d0f8" stroke="#b1d0f8" stroke-width="1.51"/><path d="M2797,2571L2504,2351L2397,2597Z" fill="#bbd7fa" stroke="#bbd7fa" stroke-width="1.51"/><path d="M719,3408L704,3369L507,3423Z" fill="#99b6dc" stroke="#99b6dc" stroke-width="1.51"/><path d="M527,3260L704,3369L722,2894Z" fill="#98b5dd" stroke="#98b5dd" stroke-width="1.51"/><path d="M2474,98L2397,573L2809,289Z" fill="#8da7d2" stroke="#8da7d2" stroke-width="1.51"/><path d="M2007,3354L2022,3116L1778,3113Z" fill="#bed9fb" stroke="#bed9fb" stroke-width="1.51"/><path d="M479,-427L292,-199L514,-45Z" fill="#3968a5" stroke="#3968a5" stroke-width="1.51"/><path d="M715,-200L479,-427L514,-45Z" fill="#3e6ca8" stroke="#3e6ca8" stroke-width="1.51"/><path d="M1188,-359L844,-338L1035,-142Z" fill="#4a77b7" stroke="#4a77b7" stroke-width="1.51"/><path d="M1188,-359L1035,-142L1340,-102Z" fill="#4e79ba" stroke="#4e79ba" stroke-width="1.51"/><path d="M1629,-352L1340,-102L1712,58Z" fill="#5880c0" stroke="#5880c0" stroke-width="1.51"/><path d="M1629,-352L1712,58L1846,-312Z" fill="#5f87c4" stroke="#5f87c4" stroke-width="1.51"/><path d="M704,3369L957,3454L1028,3375Z" fill="#a0bde5" stroke="#a0bde5" stroke-width="1.51"/><path d="M507,3423L704,3369L527,3260Z" fill="#97b3da" stroke="#97b3da" stroke-width="1.51"/><path d="M292,-199L91,-134L280,176Z" fill="#3060a0" stroke="#3060a0" stroke-width="1.51"/><path d="M-108,97L-404,-153L-213,207Z" fill="#275a9d" stroke="#275a9d" stroke-width="1.51"/><path d="M1412,-302L1188,-359L1340,-102Z" fill="#507bbc" stroke="#507bbc" stroke-width="1.51"/><path d="M1705,3247L2007,3354L1778,3113Z" fill="#b9d5f9" stroke="#b9d5f9" stroke-width="1.51"/><path d="M1443,3329L1650,3476L1705,3247Z" fill="#b0cbf4" stroke="#b0cbf4" stroke-width="1.51"/><path d="M1206,3554L1414,3403L1251,3217Z" fill="#a7c3ed" stroke="#a7c3ed" stroke-width="1.51"/><path d="M1206,3554L1251,3217L1028,3375Z" fill="#a5c1eb" stroke="#a5c1eb" stroke-width="1.51"/><path d="M719,3408L957,3454L704,3369Z" fill="#9dbae1" stroke="#9dbae1" stroke-width="1.51"/><path d="M2022,3116L2333,2951L2202,2775Z" fill="#c1dbfc" stroke="#c1dbfc" stroke-width="1.51"/><path d="M2356,2696L2666,2840L2397,2597Z" fill="#c3dcfc" stroke="#c3dcfc" stroke-width="1.51"/><path d="M261,3178L507,3423L527,3260Z" fill="#92afd6" stroke="#92afd6" stroke-width="1.51"/><path d="M-255,2874L-18,3192L-42,2911Z" fill="#7b99cb" stroke="#7b99cb" stroke-width="1.51"/><path d="M82,3535L507,3423L261,3178Z" fill="#8ea9d2" stroke="#8ea9d2" stroke-width="1.51"/><path d="M719,3408L507,3423L957,3454Z" fill="#9bb8df" stroke="#9bb8df" stroke-width="1.51"/><path d="M-255,2874L-249,3329L-18,3192Z" fill="#819ccc" stroke="#819ccc" stroke-width="1.51"/><path d="M-408,2070L-391,2902L-282,2356Z" fill="#638bc7" stroke="#638bc7" stroke-width="1.51"/><path d="M-433,3475L-391,2902L-408,2070Z" fill="#7394ca" stroke="#7394ca" stroke-width="1.51"/><path d="M2279,173L2182,-29L2035,317Z" fill="#7b9bcd" stroke="#7b9bcd" stroke-width="1.51"/><path d="M2474,98L2182,-29L2279,173Z" fill="#819dcd" stroke="#819dcd" stroke-width="1.51"/><path d="M1412,-302L1629,-352L1188,-359Z" fill="#527cbd" stroke="#527cbd" stroke-width="1.51"/><path d="M1846,-312L1712,58L1939,1Z" fill="#638bc7" stroke="#638bc7" stroke-width="1.51"/><path d="M2360,3270L2448,2921L2333,2951Z" fill="#d0e5fe" stroke="#d0e5fe" stroke-width="1.51"/><path d="M2333,2951L2448,2921L2356,2696Z" fill="#c8dffd" stroke="#c8dffd" stroke-width="1.51"/><path d="M2187,3305L2333,2951L2022,3116Z" fill="#c8e0fd" stroke="#c8e0fd" stroke-width="1.51"/><path d="M1414,3403L1650,3476L1443,3329Z" fill="#acc7f1" stroke="#acc7f1" stroke-width="1.51"/><path d="M957,3454L1206,3554L1028,3375Z" fill="#a3c0e9" stroke="#a3c0e9" stroke-width="1.51"/><path d="M507,3423L1206,3554L957,3454Z" fill="#9fbce5" stroke="#9fbce5" stroke-width="1.51"/><path d="M2097,-313L1846,-312L1939,1Z" fill="#6a8fc9" stroke="#6a8fc9" stroke-width="1.51"/><path d="M292,-199L-110,-445L91,-134Z" fill="#2a5c9e" stroke="#2a5c9e" stroke-width="1.51"/><path d="M844,-338L479,-427L715,-200Z" fill="#416fac" stroke="#416fac" stroke-width="1.51"/><path d="M1188,-359L479,-427L844,-338Z" fill="#4573b1" stroke="#4573b1" stroke-width="1.51"/><path d="M1629,-352L479,-427L1188,-359Z" fill="#4c78b8" stroke="#4c78b8" stroke-width="1.51"/><path d="M1206,3554L1650,3476L1414,3403Z" fill="#aac5ef" stroke="#aac5ef" stroke-width="1.51"/><path d="M-110,-445L-159,-152L91,-134Z" fill="#25599c" stroke="#25599c" stroke-width="1.51"/><path d="M91,-134L-159,-152L-108,97Z" fill="#25599c" stroke="#25599c" stroke-width="1.51"/><path d="M-213,207L-404,-153L-248,502Z" fill="#2c5e9f" stroke="#2c5e9f" stroke-width="1.51"/><path d="M2182,-29L2097,-313L1939,1Z" fill="#7193ca" stroke="#7193ca" stroke-width="1.51"/><path d="M2809,445L2397,573L2549,663Z" fill="#92afd6" stroke="#92afd6" stroke-width="1.51"/><path d="M2721,2225L2797,2571L2843,1686Z" fill="#b1ccf4" stroke="#b1ccf4" stroke-width="1.51"/><path d="M2666,2840L2797,2571L2397,2597Z" fill="#c1dbfc" stroke="#c1dbfc" stroke-width="1.51"/><path d="M1650,3476L2007,3354L1705,3247Z" fill="#b7d3f8" stroke="#b7d3f8" stroke-width="1.51"/><path d="M2700,2987L2666,2840L2448,2921Z" fill="#cce2fe" stroke="#cce2fe" stroke-width="1.51"/><path d="M2448,2921L2666,2840L2356,2696Z" fill="#c8dffd" stroke="#c8dffd" stroke-width="1.51"/><path d="M2707,831L2809,445L2549,663Z" fill="#94b1d7" stroke="#94b1d7" stroke-width="1.51"/><path d="M2843,1686L2809,445L2736,1294Z" fill="#9ebbe4" stroke="#9ebbe4" stroke-width="1.51"/><path d="M2007,3354L2187,3305L2022,3116Z" fill="#c5defd" stroke="#c5defd" stroke-width="1.51"/><path d="M2360,3270L2187,3305L2332,3562Z" fill="#d1e6fe" stroke="#d1e6fe" stroke-width="1.51"/><path d="M2392,-295L2097,-313L2182,-29Z" fill="#7a98cb" stroke="#7a98cb" stroke-width="1.51"/><path d="M1846,-312L2097,-313L1629,-352Z" fill="#658cc7" stroke="#658cc7" stroke-width="1.51"/><path d="M2555,-69L2182,-29L2474,98Z" fill="#859ecd" stroke="#859ecd" stroke-width="1.51"/><path d="M507,3423L82,3535L1206,3554Z" fill="#97b4db" stroke="#97b4db" stroke-width="1.51"/><path d="M-18,3192L82,3535L261,3178Z" fill="#88a2cf" stroke="#88a2cf" stroke-width="1.51"/><path d="M-391,2902L-249,3329L-255,2874Z" fill="#7e9acc" stroke="#7e9acc" stroke-width="1.51"/><path d="M2843,1686L2809,289L2809,445Z" fill="#98b4db" stroke="#98b4db" stroke-width="1.51"/><path d="M2809,445L2809,289L2397,573Z" fill="#8fabd3" stroke="#8fabd3" stroke-width="1.51"/><path d="M2187,3305L2360,3270L2333,2951Z" fill="#d0e5fe" stroke="#d0e5fe" stroke-width="1.51"/><path d="M2332,3562L2187,3305L2007,3354Z" fill="#cbe1fd" stroke="#cbe1fd" stroke-width="1.51"/><path d="M-207,3413L82,3535L-18,3192Z" fill="#859ecd" stroke="#859ecd" stroke-width="1.51"/><path d="M-320,-430L-404,-153L-159,-152Z" fill="#25599c" stroke="#25599c" stroke-width="1.51"/><path d="M-159,-152L-404,-153L-108,97Z" fill="#25599c" stroke="#25599c" stroke-width="1.51"/><path d="M-340,818L-404,-153L-421,1583Z" fill="#3e6ca8" stroke="#3e6ca8" stroke-width="1.51"/><path d="M2360,3270L2700,2987L2448,2921Z" fill="#d2e6fe" stroke="#d2e6fe" stroke-width="1.51"/><path d="M2666,2840L2700,2987L2797,2571Z" fill="#c7dffd" stroke="#c7dffd" stroke-width="1.51"/><path d="M-249,3329L-207,3413L-18,3192Z" fill="#859ecd" stroke="#859ecd" stroke-width="1.51"/><path d="M2655,-40L2555,-69L2474,98Z" fill="#859ecd" stroke="#859ecd" stroke-width="1.51"/><path d="M1650,3476L1903,3618L2007,3354Z" fill="#bad6fa" stroke="#bad6fa" stroke-width="1.51"/><path d="M1206,3554L1903,3618L1650,3476Z" fill="#b0caf3" stroke="#b0caf3" stroke-width="1.51"/><path d="M82,3535L1903,3618L1206,3554Z" fill="#a3c0e9" stroke="#a3c0e9" stroke-width="1.51"/><path d="M479,-427L-110,-445L292,-199Z" fill="#3060a0" stroke="#3060a0" stroke-width="1.51"/><path d="M2809,289L2655,-40L2474,98Z" fill="#87a1ce" stroke="#87a1ce" stroke-width="1.51"/><path d="M2555,-69L2392,-295L2182,-29Z" fill="#839dcd" stroke="#839dcd" stroke-width="1.51"/><path d="M2614,-199L2392,-295L2555,-69Z" fill="#859ecd" stroke="#859ecd" stroke-width="1.51"/><path d="M2097,-313L2392,-295L1629,-352Z" fill="#6f92ca" stroke="#6f92ca" stroke-width="1.51"/><path d="M2655,-40L2614,-199L2555,-69Z" fill="#859ecd" stroke="#859ecd" stroke-width="1.51"/><path d="M2809,289L2614,-199L2655,-40Z" fill="#859fcd" stroke="#859fcd" stroke-width="1.51"/><path d="M-110,-445L-320,-430L-159,-152Z" fill="#25599c" stroke="#25599c" stroke-width="1.51"/><path d="M-421,1583L-433,3475L-408,2070Z" fill="#6189c5" stroke="#6189c5" stroke-width="1.51"/><path d="M-391,2902L-433,3475L-249,3329Z" fill="#859ecd" stroke="#859ecd" stroke-width="1.51"/><path d="M-249,3329L-433,3475L-207,3413Z" fill="#859ecd" stroke="#859ecd" stroke-width="1.51"/><path d="M-207,3413L-433,3475L82,3535Z" fill="#859ecd" stroke="#859ecd" stroke-width="1.51"/><path d="M2360,3270L2831,3224L2700,2987Z" fill="#d6e9ff" stroke="#d6e9ff" stroke-width="1.51"/><path d="M1903,3618L2332,3562L2007,3354Z" fill="#c6defd" stroke="#c6defd" stroke-width="1.51"/><path d="M2741,3398L2831,3224L2360,3270Z" fill="#d7eaff" stroke="#d7eaff" stroke-width="1.51"/><path d="M2700,2987L2831,3224L2797,2571Z" fill="#cce2fe" stroke="#cce2fe" stroke-width="1.51"/><path d="M2797,2571L2831,3224L2843,1686Z" fill="#bbd6fa" stroke="#bbd6fa" stroke-width="1.51"/><path d="M2332,3562L2524,3562L2360,3270Z" fill="#d7eaff" stroke="#d7eaff" stroke-width="1.51"/><path d="M1903,3618L2524,3562L2332,3562Z" fill="#cfe4fe" stroke="#cfe4fe" stroke-width="1.51"/><path d="M2524,3562L2741,3398L2360,3270Z" fill="#d7eaff" stroke="#d7eaff" stroke-width="1.51"/></svg>